<svg xmlns="http://www.w3.org/2000/svg" xmlns:xlink="http://www.w3.org/1999/xlink" width="378" zoomAndPan="magnify" viewBox="0 0 282.96 289.91998" height="378" preserveAspectRatio="xMidYMid meet" version="1.0"><defs><clipPath id="d92de6a1e2"><path d="M 11 26 L 121 26 L 121 234.414062 L 11 234.414062 Z M 11 26 " clip-rule="nonzero"/></clipPath></defs><g clip-path="url(#d92de6a1e2)"><path fill="#33605c" d="M 120.332031 129.757812 C 120.332031 156.65625 120.402344 183.554688 120.253906 210.453125 C 120.234375 214.1875 119.773438 218.152344 118.453125 221.601562 C 115.351562 229.722656 107.492188 234.164062 98.304688 234.011719 C 90.480469 233.882812 84.039062 230.671875 78.433594 225.519531 C 77.171875 224.359375 76.109375 223.96875 74.316406 224.285156 C 59.355469 226.925781 44.65625 216.828125 41.664062 201.839844 C 41.164062 199.335938 40.160156 197.765625 37.996094 196.261719 C 26.644531 188.375 21 177.5625 22.3125 163.5625 C 22.484375 161.738281 21.976562 160.476562 20.910156 159.113281 C 9.882812 145.015625 8.878906 126.332031 18.605469 112.277344 C 20.324219 109.789062 20.976562 107.445312 21.011719 104.496094 C 21.140625 92.933594 26.738281 84.242188 35.878906 77.621094 C 37.027344 76.789062 37.570312 76.03125 37.582031 74.570312 C 37.710938 57.785156 51.179688 44.558594 67.96875 44.871094 C 70.519531 44.921875 71.71875 44.121094 72.886719 41.933594 C 78.957031 30.546875 91.753906 24.554688 103.949219 27.171875 C 114.078125 29.34375 120.308594 37.136719 120.332031 47.9375 C 120.386719 72.371094 120.359375 96.804688 120.363281 121.238281 C 120.363281 124.078125 120.363281 126.917969 120.363281 129.757812 C 120.355469 129.757812 120.34375 129.757812 120.332031 129.757812 Z M 98.847656 132.996094 C 103.226562 128.597656 107.394531 124.445312 111.496094 120.226562 C 111.886719 119.824219 112 119.011719 112 118.386719 C 112.023438 94.542969 112.042969 70.703125 111.992188 46.859375 C 111.980469 41.464844 108.296875 36.980469 103.070312 35.613281 C 92.554688 32.867188 82.089844 38.875 78.695312 49.601562 C 77.742188 52.621094 77.089844 53.054688 73.886719 53.140625 C 70.386719 53.238281 66.828125 53.058594 63.402344 53.628906 C 52.246094 55.496094 44.84375 65.125 45.917969 76.234375 C 46.207031 79.230469 45.222656 81.078125 42.707031 82.691406 C 33.433594 88.628906 28.144531 96.839844 28.875 108.238281 C 29.019531 110.523438 28.292969 112.378906 26.902344 114.210938 C 20.695312 122.386719 18.4375 131.507812 20.835938 141.601562 C 22.234375 147.480469 25.292969 152.457031 29.492188 156.742188 C 30.859375 158.136719 31.402344 159.53125 30.792969 161.5625 C 30.222656 163.457031 29.882812 165.539062 30 167.503906 C 30.675781 178.683594 36.238281 186.707031 46.226562 191.625 C 48.183594 192.589844 49.050781 193.945312 49.078125 195.980469 C 49.277344 211.457031 64.5625 219.203125 76.292969 215.675781 C 78.894531 214.890625 80.714844 215.535156 82.390625 217.535156 C 85.171875 220.859375 88.605469 223.316406 92.789062 224.609375 C 102.925781 227.738281 112.183594 223.382812 112.0625 210.953125 C 111.820312 185.394531 112.003906 159.832031 112.011719 134.269531 C 112.011719 133.484375 112.011719 132.695312 112.011719 131.910156 C 111.777344 131.761719 111.542969 131.609375 111.308594 131.460938 C 108.351562 134.570312 105.445312 137.738281 102.417969 140.78125 C 99.382812 143.824219 98.46875 143.808594 95.429688 140.765625 C 90.308594 135.632812 84.996094 130.660156 80.246094 125.203125 C 76.777344 121.222656 73.210938 118.496094 67.6875 119.617188 C 67.542969 119.648438 67.390625 119.609375 67.238281 119.601562 C 62.886719 119.335938 59.671875 116.996094 58.675781 112.71875 C 58.09375 110.226562 58.191406 107.546875 58.183594 104.953125 C 58.179688 103.546875 57.84375 102.714844 56.566406 101.90625 C 52.863281 99.558594 50.820312 96.210938 50.960938 91.640625 C 51.117188 86.53125 54.609375 82.242188 59.703125 81.136719 C 64.613281 80.070312 69.738281 82.613281 72.007812 87.242188 C 74.289062 91.894531 73.433594 97.855469 69.21875 100.496094 C 66.195312 102.390625 65.886719 104.601562 66.132812 107.496094 C 66.183594 108.089844 66.191406 108.695312 66.132812 109.289062 C 65.96875 111.070312 66.847656 111.683594 68.527344 111.644531 C 71.289062 111.585938 74.0625 111.726562 76.816406 111.554688 C 77.800781 111.492188 78.972656 111.007812 79.667969 110.320312 C 83.226562 106.800781 86.703125 103.191406 90.09375 99.511719 C 90.765625 98.785156 91.269531 97.609375 91.289062 96.628906 C 91.402344 91.023438 91.277344 85.417969 91.382812 79.8125 C 91.414062 78.140625 90.960938 77.214844 89.460938 76.292969 C 82.300781 71.894531 81.703125 61.804688 88.210938 57.246094 C 93.410156 53.605469 100.535156 54.796875 104.070312 59.898438 C 107.691406 65.125 106.363281 72.234375 100.90625 75.8125 C 99.542969 76.703125 99.21875 77.625 99.238281 79.078125 C 99.3125 84.605469 99.105469 90.148438 99.371094 95.667969 C 99.578125 99.96875 98.15625 103.277344 95.085938 106.222656 C 91.273438 109.882812 87.707031 113.796875 83.5625 118.089844 C 87.601562 121.9375 91.554688 125.675781 95.472656 129.449219 C 96.59375 130.527344 97.617188 131.699219 98.847656 132.996094 Z M 91.261719 66.25 C 91.210938 68.136719 93.023438 70.117188 94.855469 70.164062 C 96.609375 70.207031 98.4375 68.410156 98.503906 66.566406 C 98.574219 64.636719 96.8125 62.742188 94.898438 62.691406 C 93.089844 62.644531 91.316406 64.375 91.261719 66.25 Z M 62.117188 95.816406 C 63.886719 95.789062 65.730469 93.933594 65.730469 92.171875 C 65.734375 90.230469 63.960938 88.523438 61.957031 88.535156 C 59.953125 88.550781 58.441406 90.082031 58.441406 92.09375 C 58.441406 94.144531 60.117188 95.84375 62.117188 95.816406 Z M 62.117188 95.816406 " fill-opacity="1" fill-rule="nonzero"/></g><path fill="#33605c" d="M 70.523438 186.722656 C 74.777344 191.15625 78.996094 195.554688 82.582031 199.289062 C 85.457031 196.796875 88.097656 194.589844 90.617188 192.253906 C 91.125 191.785156 91.40625 190.828125 91.414062 190.089844 C 91.488281 183.292969 91.496094 176.492188 91.464844 169.691406 C 91.460938 169.011719 91.261719 168.101562 90.800781 167.691406 C 87.804688 165 84.789062 162.308594 81.59375 159.859375 C 80.570312 159.074219 78.996094 158.714844 77.660156 158.691406 C 74.003906 158.617188 70.339844 158.765625 66.683594 158.941406 C 63.335938 159.105469 60.535156 158.015625 58.210938 155.644531 C 54.339844 151.695312 50.410156 147.804688 46.652344 143.75 C 45.382812 142.386719 44.257812 141.683594 42.285156 141.910156 C 34.859375 142.753906 28.078125 135.46875 30.730469 126.992188 C 32.542969 121.203125 38.605469 118.261719 44.585938 120.074219 C 50.285156 121.804688 53.75 127.984375 51.890625 133.757812 C 51.160156 136.027344 51.546875 137.410156 53.160156 138.976562 C 56.699219 142.410156 60.039062 146.046875 63.574219 149.484375 C 64.273438 150.164062 65.484375 150.621094 66.46875 150.644531 C 70.652344 150.730469 74.839844 150.652344 79.023438 150.554688 C 81.679688 150.492188 84.0625 151.207031 86.082031 152.886719 C 89.582031 155.804688 93.03125 158.78125 96.445312 161.796875 C 98.75 163.828125 99.773438 166.363281 99.71875 169.535156 C 99.59375 176.480469 99.6875 183.433594 99.773438 190.382812 C 99.808594 192.910156 99.128906 195.15625 97.410156 196.941406 C 93.835938 200.648438 90.242188 204.34375 86.472656 207.847656 C 83.871094 210.273438 82.625 210.175781 79.90625 207.792969 C 73.613281 202.261719 67.601562 196.460938 62.664062 189.628906 C 62.128906 188.886719 61.054688 188.414062 60.132812 188.09375 C 55.164062 186.363281 51.832031 181.320312 52.417969 176.257812 C 53.03125 170.925781 57.1875 166.726562 62.3125 166.261719 C 67.960938 165.746094 72.917969 168.902344 74.402344 174.097656 C 75.445312 177.742188 74.933594 181.191406 72.574219 184.257812 C 71.988281 185.019531 71.347656 185.734375 70.523438 186.722656 Z M 63.707031 173.695312 C 61.660156 173.617188 59.9375 175.226562 59.921875 177.230469 C 59.90625 179.121094 61.734375 181.003906 63.597656 181.019531 C 65.511719 181.035156 67.121094 179.46875 67.199219 177.511719 C 67.285156 175.433594 65.765625 173.773438 63.707031 173.695312 Z M 44.753906 130.730469 C 44.746094 128.667969 43.132812 127.074219 41.085938 127.105469 C 39.1875 127.136719 37.5625 128.75 37.511719 130.652344 C 37.464844 132.589844 39.1875 134.371094 41.140625 134.398438 C 43.160156 134.429688 44.757812 132.808594 44.753906 130.730469 Z M 44.753906 130.730469 " fill-opacity="1" fill-rule="nonzero"/></svg>