<svg xmlns="http://www.w3.org/2000/svg" xmlns:xlink="http://www.w3.org/1999/xlink" width="378" zoomAndPan="magnify" viewBox="0 0 282.96 289.91998" height="378" preserveAspectRatio="xMidYMid meet" version="1.0"><defs><clipPath id="e5aad94029"><path d="M 195 122 L 251 122 L 251 151 L 195 151 Z M 195 122 " clip-rule="nonzero"/></clipPath><clipPath id="220a8a112f"><path d="M 211.3125 98.761719 L 255.078125 147.132812 L 213.378906 184.863281 L 169.613281 136.492188 Z M 211.3125 98.761719 " clip-rule="nonzero"/></clipPath><clipPath id="ba8ae111cd"><path d="M 211.3125 98.761719 L 255.078125 147.132812 L 213.378906 184.863281 L 169.613281 136.492188 Z M 211.3125 98.761719 " clip-rule="nonzero"/></clipPath><clipPath id="e3f0a6cd3e"><path d="M 173 102 L 246 102 L 246 175 L 173 175 Z M 173 102 " clip-rule="nonzero"/></clipPath><clipPath id="c0f54992d8"><path d="M 211.3125 98.761719 L 255.078125 147.132812 L 213.378906 184.863281 L 169.613281 136.492188 Z M 211.3125 98.761719 " clip-rule="nonzero"/></clipPath><clipPath id="2edecad7b3"><path d="M 211.3125 98.761719 L 255.078125 147.132812 L 213.378906 184.863281 L 169.613281 136.492188 Z M 211.3125 98.761719 " clip-rule="nonzero"/></clipPath></defs><g clip-path="url(#e5aad94029)"><g clip-path="url(#220a8a112f)"><g clip-path="url(#ba8ae111cd)"><path fill="#33605c" d="M 201.269531 123.417969 C 200.898438 120.46875 208.832031 122.988281 209.425781 127.769531 C 209.425781 127.808594 209.34375 134.542969 206.675781 140.648438 C 212.6875 139.761719 226.402344 137.792969 238.351562 142.273438 C 245.660156 145.015625 251.992188 149.878906 249.570312 150.738281 C 243.117188 148.507812 224.101562 143.75 200.859375 150.019531 C 199.71875 150.367188 198.429688 150.164062 197.425781 149.367188 C 195.796875 148.078125 195.3125 144.292969 196.601562 142.667969 C 200.445312 134.320312 201.273438 128.597656 201.269531 123.417969 Z M 201.269531 123.417969 " fill-opacity="1" fill-rule="nonzero"/></g></g></g><g clip-path="url(#e3f0a6cd3e)"><g clip-path="url(#c0f54992d8)"><g clip-path="url(#2edecad7b3)"><path fill="#33605c" d="M 217.128906 105.195312 L 242.996094 133.78125 C 244.597656 135.554688 245.328125 137.816406 245.21875 140.035156 C 245.175781 140.890625 245.007812 141.738281 244.714844 142.550781 C 243.597656 141.945312 242.449219 141.390625 241.292969 140.886719 C 241.386719 140.546875 241.4375 140.199219 241.457031 139.847656 C 241.519531 138.589844 241.105469 137.308594 240.203125 136.308594 L 214.335938 107.722656 C 213.433594 106.722656 212.199219 106.183594 210.941406 106.121094 C 209.683594 106.058594 208.402344 106.472656 207.402344 107.378906 L 178.816406 133.242188 C 177.816406 134.148438 177.277344 135.378906 177.214844 136.636719 C 177.152344 137.894531 177.566406 139.175781 178.46875 140.175781 L 204.335938 168.761719 C 205.238281 169.761719 206.472656 170.300781 207.730469 170.363281 C 208.988281 170.425781 210.269531 170.015625 211.269531 169.109375 L 232.722656 149.695312 C 234.34375 149.851562 235.996094 150.058594 237.652344 150.316406 L 213.796875 171.902344 C 212.027344 173.503906 209.761719 174.238281 207.542969 174.125 C 205.324219 174.015625 203.144531 173.058594 201.542969 171.289062 L 175.675781 142.703125 C 174.074219 140.933594 173.34375 138.667969 173.453125 136.449219 C 173.566406 134.230469 174.519531 132.050781 176.289062 130.449219 L 204.875 104.585938 C 206.644531 102.980469 208.910156 102.25 211.128906 102.359375 C 213.347656 102.472656 215.527344 103.425781 217.128906 105.195312 Z M 217.128906 105.195312 " fill-opacity="1" fill-rule="nonzero"/></g></g></g></svg>