<svg xmlns="http://www.w3.org/2000/svg" xmlns:xlink="http://www.w3.org/1999/xlink" width="378" zoomAndPan="magnify" viewBox="0 0 282.96 289.91998" height="378" preserveAspectRatio="xMidYMid meet" version="1.0"><defs><clipPath id="49f437fcdd"><path d="M 69 19.339844 L 215.136719 19.339844 L 215.136719 210 L 69 210 Z M 69 19.339844 " clip-rule="nonzero"/></clipPath><clipPath id="9c8efa1947"><path d="M 117 248 L 168 248 L 168 257.773438 L 117 257.773438 Z M 117 248 " clip-rule="nonzero"/></clipPath></defs><g clip-path="url(#49f437fcdd)"><path fill="#33605c" d="M 142.140625 27.101562 C 106.121094 27.101562 76.820312 56.40625 76.820312 92.417969 C 76.820312 107.75 83.125 121.613281 89.289062 133.160156 C 91.5 137.28125 93.886719 141.375 96.398438 145.320312 C 97.285156 146.710938 98.285156 148.117188 99.34375 149.605469 C 104.507812 156.859375 110.9375 165.886719 111.328125 183.347656 L 111.328125 190.066406 C 111.328125 196.34375 116.433594 201.449219 122.714844 201.449219 L 161.570312 201.449219 C 167.847656 201.449219 172.957031 196.34375 172.957031 190.066406 L 172.957031 182.53125 L 172.960938 182.398438 C 173.550781 165.566406 179.84375 156.726562 184.902344 149.621094 C 185.964844 148.128906 186.964844 146.714844 187.859375 145.320312 C 194.136719 135.476562 198.515625 127.320312 201.636719 119.652344 C 203.796875 114.328125 205.320312 109.359375 206.292969 104.453125 C 207.070312 100.589844 207.460938 96.542969 207.460938 92.417969 C 207.460938 56.40625 178.15625 27.101562 142.140625 27.101562 Z M 161.570312 209.25 L 122.714844 209.25 C 112.136719 209.25 103.53125 200.644531 103.53125 190.066406 L 103.53125 183.4375 C 103.195312 168.453125 98.007812 161.167969 92.996094 154.125 C 91.875 152.554688 90.820312 151.074219 89.820312 149.511719 C 87.203125 145.398438 84.710938 141.132812 82.410156 136.835938 C 75.792969 124.4375 69.023438 109.46875 69.023438 92.417969 C 69.023438 52.101562 101.824219 19.304688 142.140625 19.304688 C 182.457031 19.304688 215.253906 52.101562 215.253906 92.417969 C 215.253906 97.058594 214.8125 101.617188 213.9375 105.976562 C 212.871094 111.363281 211.210938 116.800781 208.859375 122.585938 C 205.554688 130.710938 200.96875 139.261719 194.433594 149.511719 C 193.433594 151.078125 192.375 152.566406 191.253906 154.140625 C 186.347656 161.03125 181.273438 168.160156 180.753906 182.605469 L 180.753906 190.066406 C 180.753906 200.644531 172.148438 209.25 161.570312 209.25 " fill-opacity="1" fill-rule="nonzero"/></g><g clip-path="url(#9c8efa1947)"><path fill="#33605c" d="M 117.113281 248.359375 L 132.097656 255.589844 C 137.648438 258.265625 146.636719 258.265625 152.183594 255.589844 L 167.171875 248.359375 L 117.113281 248.359375 " fill-opacity="1" fill-rule="nonzero"/></g><path fill="#33605c" d="M 170.226562 245.796875 C 170.226562 247.949219 168.484375 249.699219 166.320312 249.699219 L 117.960938 249.699219 C 115.804688 249.699219 114.054688 247.949219 114.054688 245.796875 C 114.054688 243.636719 115.804688 241.890625 117.960938 241.890625 L 166.320312 241.890625 C 168.484375 241.890625 170.226562 243.636719 170.226562 245.796875 " fill-opacity="1" fill-rule="nonzero"/><path fill="#33605c" d="M 173.464844 234.558594 C 173.464844 236.71875 171.714844 238.464844 169.5625 238.464844 L 114.722656 238.464844 C 112.566406 238.464844 110.816406 236.71875 110.816406 234.558594 C 110.816406 232.402344 112.566406 230.652344 114.722656 230.652344 L 169.5625 230.652344 C 171.714844 230.652344 173.464844 232.402344 173.464844 234.558594 " fill-opacity="1" fill-rule="nonzero"/><path fill="#33605c" d="M 173.464844 223.324219 C 173.464844 225.480469 171.714844 227.234375 169.5625 227.234375 L 114.722656 227.234375 C 112.566406 227.234375 110.816406 225.480469 110.816406 223.324219 C 110.816406 221.167969 112.566406 219.417969 114.722656 219.417969 L 169.5625 219.417969 C 171.714844 219.417969 173.464844 221.167969 173.464844 223.324219 " fill-opacity="1" fill-rule="nonzero"/><path fill="#33605c" d="M 176.867188 212.089844 C 176.867188 214.246094 175.117188 215.992188 172.960938 215.992188 L 111.320312 215.992188 C 109.167969 215.992188 107.417969 214.246094 107.417969 212.089844 C 107.417969 209.9375 109.167969 208.1875 111.320312 208.1875 L 172.960938 208.1875 C 175.117188 208.1875 176.867188 209.9375 176.867188 212.089844 " fill-opacity="1" fill-rule="nonzero"/></svg>