<svg xmlns="http://www.w3.org/2000/svg" xmlns:xlink="http://www.w3.org/1999/xlink" width="378" zoomAndPan="magnify" viewBox="0 0 282.96 289.91998" height="378" preserveAspectRatio="xMidYMid meet" version="1.0"><defs><clipPath id="2275f1bc58"><path d="M 139 148 L 220 148 L 220 229 L 139 229 Z M 139 148 " clip-rule="nonzero"/></clipPath><clipPath id="83bc3c5cf4"><path d="M 132.972656 184.726562 L 180.835938 141.511719 L 224.046875 189.375 L 176.183594 232.585938 Z M 132.972656 184.726562 " clip-rule="nonzero"/></clipPath><clipPath id="a2c6939943"><path d="M 132.972656 184.726562 L 180.835938 141.511719 L 224.046875 189.375 L 176.183594 232.585938 Z M 132.972656 184.726562 " clip-rule="nonzero"/></clipPath><clipPath id="abc6743b79"><path d="M 161 195 L 171 195 L 171 204 L 161 204 Z M 161 195 " clip-rule="nonzero"/></clipPath><clipPath id="7f536d2cb4"><path d="M 132.972656 184.726562 L 180.835938 141.511719 L 224.046875 189.375 L 176.183594 232.585938 Z M 132.972656 184.726562 " clip-rule="nonzero"/></clipPath><clipPath id="f06c2aa0b6"><path d="M 132.972656 184.726562 L 180.835938 141.511719 L 224.046875 189.375 L 176.183594 232.585938 Z M 132.972656 184.726562 " clip-rule="nonzero"/></clipPath><clipPath id="c1ec9a4540"><path d="M 170 187 L 180 187 L 180 197 L 170 197 Z M 170 187 " clip-rule="nonzero"/></clipPath><clipPath id="56887328fc"><path d="M 132.972656 184.726562 L 180.835938 141.511719 L 224.046875 189.375 L 176.183594 232.585938 Z M 132.972656 184.726562 " clip-rule="nonzero"/></clipPath><clipPath id="3c63aa4cf8"><path d="M 132.972656 184.726562 L 180.835938 141.511719 L 224.046875 189.375 L 176.183594 232.585938 Z M 132.972656 184.726562 " clip-rule="nonzero"/></clipPath><clipPath id="b7a7fd5174"><path d="M 178 179 L 188 179 L 188 189 L 178 189 Z M 178 179 " clip-rule="nonzero"/></clipPath><clipPath id="dd78fa30da"><path d="M 132.972656 184.726562 L 180.835938 141.511719 L 224.046875 189.375 L 176.183594 232.585938 Z M 132.972656 184.726562 " clip-rule="nonzero"/></clipPath><clipPath id="cc79ea6821"><path d="M 132.972656 184.726562 L 180.835938 141.511719 L 224.046875 189.375 L 176.183594 232.585938 Z M 132.972656 184.726562 " clip-rule="nonzero"/></clipPath><clipPath id="769016a05a"><path d="M 187 171 L 197 171 L 197 181 L 187 181 Z M 187 171 " clip-rule="nonzero"/></clipPath><clipPath id="7a4c1f38e1"><path d="M 132.972656 184.726562 L 180.835938 141.511719 L 224.046875 189.375 L 176.183594 232.585938 Z M 132.972656 184.726562 " clip-rule="nonzero"/></clipPath><clipPath id="06f9c2d91b"><path d="M 132.972656 184.726562 L 180.835938 141.511719 L 224.046875 189.375 L 176.183594 232.585938 Z M 132.972656 184.726562 " clip-rule="nonzero"/></clipPath><clipPath id="c1e8b0ce37"><path d="M 171 205 L 180 205 L 180 215 L 171 215 Z M 171 205 " clip-rule="nonzero"/></clipPath><clipPath id="eef9bbdb1e"><path d="M 132.972656 184.726562 L 180.835938 141.511719 L 224.046875 189.375 L 176.183594 232.585938 Z M 132.972656 184.726562 " clip-rule="nonzero"/></clipPath><clipPath id="5129d290d3"><path d="M 132.972656 184.726562 L 180.835938 141.511719 L 224.046875 189.375 L 176.183594 232.585938 Z M 132.972656 184.726562 " clip-rule="nonzero"/></clipPath><clipPath id="ee0c054df7"><path d="M 179 197 L 189 197 L 189 207 L 179 207 Z M 179 197 " clip-rule="nonzero"/></clipPath><clipPath id="8099d378eb"><path d="M 132.972656 184.726562 L 180.835938 141.511719 L 224.046875 189.375 L 176.183594 232.585938 Z M 132.972656 184.726562 " clip-rule="nonzero"/></clipPath><clipPath id="d3a038f558"><path d="M 132.972656 184.726562 L 180.835938 141.511719 L 224.046875 189.375 L 176.183594 232.585938 Z M 132.972656 184.726562 " clip-rule="nonzero"/></clipPath><clipPath id="6fd40944c2"><path d="M 188 189 L 197 189 L 197 199 L 188 199 Z M 188 189 " clip-rule="nonzero"/></clipPath><clipPath id="aba1d3f98f"><path d="M 132.972656 184.726562 L 180.835938 141.511719 L 224.046875 189.375 L 176.183594 232.585938 Z M 132.972656 184.726562 " clip-rule="nonzero"/></clipPath><clipPath id="348a39dfad"><path d="M 132.972656 184.726562 L 180.835938 141.511719 L 224.046875 189.375 L 176.183594 232.585938 Z M 132.972656 184.726562 " clip-rule="nonzero"/></clipPath><clipPath id="b28184fdb8"><path d="M 196 182 L 206 182 L 206 191 L 196 191 Z M 196 182 " clip-rule="nonzero"/></clipPath><clipPath id="54116f522c"><path d="M 132.972656 184.726562 L 180.835938 141.511719 L 224.046875 189.375 L 176.183594 232.585938 Z M 132.972656 184.726562 " clip-rule="nonzero"/></clipPath><clipPath id="0cdd030347"><path d="M 132.972656 184.726562 L 180.835938 141.511719 L 224.046875 189.375 L 176.183594 232.585938 Z M 132.972656 184.726562 " clip-rule="nonzero"/></clipPath></defs><g clip-path="url(#2275f1bc58)"><g clip-path="url(#83bc3c5cf4)"><g clip-path="url(#a2c6939943)"><path fill="#33605c" d="M 144.886719 173.96875 C 143.949219 174.816406 143.875 176.265625 144.722656 177.207031 L 146.257812 178.90625 L 142.855469 181.980469 C 139.113281 185.359375 138.816406 191.195312 142.191406 194.9375 L 169.855469 225.578125 C 173.234375 229.320312 179.070312 229.617188 182.8125 226.238281 L 216.855469 195.503906 C 220.597656 192.125 220.894531 186.289062 217.515625 182.546875 L 189.855469 151.90625 C 186.476562 148.164062 180.640625 147.867188 176.898438 151.246094 L 173.496094 154.320312 L 171.957031 152.617188 C 171.109375 151.675781 169.660156 151.601562 168.71875 152.453125 C 167.777344 153.300781 167.703125 154.75 168.554688 155.691406 L 170.089844 157.394531 L 161.578125 165.078125 L 160.042969 163.375 C 159.195312 162.433594 157.742188 162.359375 156.804688 163.210938 C 155.863281 164.058594 155.789062 165.507812 156.636719 166.449219 L 158.175781 168.152344 L 149.664062 175.835938 L 148.125 174.132812 C 147.277344 173.191406 145.828125 173.117188 144.886719 173.96875 Z M 145.929688 185.386719 L 149.332031 182.3125 L 150.871094 184.015625 C 151.71875 184.953125 153.167969 185.027344 154.109375 184.179688 C 155.046875 183.332031 155.121094 181.882812 154.273438 180.941406 L 152.738281 179.238281 L 161.25 171.554688 L 162.785156 173.257812 C 163.632812 174.195312 165.085938 174.269531 166.023438 173.421875 C 166.964844 172.574219 167.039062 171.125 166.191406 170.183594 L 164.652344 168.480469 L 173.164062 160.796875 L 174.699219 162.5 C 175.550781 163.4375 177 163.511719 177.941406 162.664062 C 178.878906 161.816406 178.953125 160.367188 178.105469 159.425781 L 176.566406 157.722656 L 179.972656 154.648438 C 181.886719 152.921875 184.722656 153.066406 186.449219 154.980469 L 189.523438 158.386719 L 148.671875 195.269531 L 145.597656 191.863281 C 143.867188 189.949219 144.011719 187.113281 145.929688 185.386719 Z M 151.746094 198.671875 L 192.597656 161.789062 L 214.113281 185.621094 C 215.84375 187.535156 215.699219 190.371094 213.78125 192.097656 L 179.738281 222.835938 C 177.824219 224.5625 174.988281 224.417969 173.261719 222.503906 Z M 151.746094 198.671875 " fill-opacity="1" fill-rule="nonzero"/></g></g></g><g clip-path="url(#abc6743b79)"><g clip-path="url(#7f536d2cb4)"><g clip-path="url(#f06c2aa0b6)"><path fill="#33605c" d="M 162.328125 198.402344 L 165.726562 195.335938 C 166.195312 194.910156 166.914062 194.941406 167.34375 195.417969 L 170.410156 198.8125 C 170.835938 199.285156 170.796875 200.007812 170.328125 200.433594 L 166.933594 203.5 C 166.453125 203.933594 165.738281 203.886719 165.3125 203.417969 L 162.246094 200.019531 C 161.816406 199.542969 161.851562 198.832031 162.328125 198.402344 Z M 162.328125 198.402344 " fill-opacity="1" fill-rule="nonzero"/></g></g></g><g clip-path="url(#c1ec9a4540)"><g clip-path="url(#56887328fc)"><g clip-path="url(#3c63aa4cf8)"><path fill="#33605c" d="M 170.832031 190.726562 L 174.226562 187.660156 C 174.707031 187.226562 175.414062 187.265625 175.847656 187.742188 L 178.914062 191.136719 C 179.335938 191.609375 179.308594 192.324219 178.828125 192.757812 L 175.433594 195.824219 C 174.964844 196.246094 174.238281 196.210938 173.816406 195.742188 L 170.75 192.34375 C 170.316406 191.867188 170.363281 191.148438 170.832031 190.726562 Z M 170.832031 190.726562 " fill-opacity="1" fill-rule="nonzero"/></g></g></g><g clip-path="url(#b7a7fd5174)"><g clip-path="url(#dd78fa30da)"><g clip-path="url(#cc79ea6821)"><path fill="#33605c" d="M 179.351562 183.035156 L 182.746094 179.96875 C 183.21875 179.542969 183.933594 179.570312 184.367188 180.050781 L 187.433594 183.445312 C 187.855469 183.917969 187.820312 184.640625 187.351562 185.066406 L 183.953125 188.132812 C 183.476562 188.5625 182.757812 188.519531 182.335938 188.046875 L 179.269531 184.652344 C 178.835938 184.175781 178.875 183.464844 179.351562 183.035156 Z M 179.351562 183.035156 " fill-opacity="1" fill-rule="nonzero"/></g></g></g><g clip-path="url(#769016a05a)"><g clip-path="url(#7a4c1f38e1)"><g clip-path="url(#06f9c2d91b)"><path fill="#33605c" d="M 187.855469 175.359375 L 191.25 172.292969 C 191.726562 171.859375 192.4375 171.894531 192.871094 172.375 L 195.933594 175.769531 C 196.359375 176.238281 196.332031 176.957031 195.851562 177.390625 L 192.457031 180.457031 C 191.988281 180.878906 191.261719 180.84375 190.835938 180.371094 L 187.769531 176.976562 C 187.339844 176.5 187.382812 175.78125 187.855469 175.359375 Z M 187.855469 175.359375 " fill-opacity="1" fill-rule="nonzero"/></g></g></g><g clip-path="url(#c1e8b0ce37)"><g clip-path="url(#eef9bbdb1e)"><g clip-path="url(#5129d290d3)"><path fill="#33605c" d="M 171.542969 208.605469 L 174.9375 205.539062 C 175.40625 205.117188 176.132812 205.152344 176.558594 205.625 L 179.625 209.019531 C 180.054688 209.496094 180.011719 210.214844 179.539062 210.636719 L 176.144531 213.703125 C 175.667969 214.136719 174.957031 214.101562 174.527344 213.621094 L 171.460938 210.226562 C 171.035156 209.753906 171.0625 209.039062 171.542969 208.605469 Z M 171.542969 208.605469 " fill-opacity="1" fill-rule="nonzero"/></g></g></g><g clip-path="url(#ee0c054df7)"><g clip-path="url(#8099d378eb)"><g clip-path="url(#d3a038f558)"><path fill="#33605c" d="M 180.042969 200.929688 L 183.441406 197.863281 C 183.917969 197.433594 184.636719 197.476562 185.058594 197.945312 L 188.125 201.34375 C 188.558594 201.820312 188.523438 202.53125 188.042969 202.960938 L 184.648438 206.027344 C 184.175781 206.453125 183.460938 206.421875 183.027344 205.945312 L 179.960938 202.550781 C 179.539062 202.078125 179.574219 201.355469 180.042969 200.929688 Z M 180.042969 200.929688 " fill-opacity="1" fill-rule="nonzero"/></g></g></g><g clip-path="url(#6fd40944c2)"><g clip-path="url(#aba1d3f98f)"><g clip-path="url(#348a39dfad)"><path fill="#33605c" d="M 188.566406 193.238281 L 191.960938 190.171875 C 192.429688 189.75 193.15625 189.785156 193.578125 190.253906 L 196.644531 193.652344 C 197.078125 194.128906 197.03125 194.847656 196.5625 195.269531 L 193.167969 198.335938 C 192.6875 198.769531 191.980469 198.730469 191.546875 198.253906 L 188.480469 194.859375 C 188.058594 194.386719 188.085938 193.671875 188.566406 193.238281 Z M 188.566406 193.238281 " fill-opacity="1" fill-rule="nonzero"/></g></g></g><g clip-path="url(#b28184fdb8)"><g clip-path="url(#54116f522c)"><g clip-path="url(#0cdd030347)"><path fill="#33605c" d="M 197.066406 185.5625 L 200.460938 182.496094 C 200.941406 182.0625 201.65625 182.109375 202.082031 182.578125 L 205.148438 185.972656 C 205.578125 186.453125 205.542969 187.160156 205.066406 187.59375 L 201.667969 190.660156 C 201.199219 191.082031 200.480469 191.054688 200.050781 190.578125 L 196.984375 187.179688 C 196.558594 186.710938 196.597656 185.984375 197.066406 185.5625 Z M 197.066406 185.5625 " fill-opacity="1" fill-rule="nonzero"/></g></g></g></svg>