<svg xmlns="http://www.w3.org/2000/svg" xmlns:xlink="http://www.w3.org/1999/xlink" width="378" zoomAndPan="magnify" viewBox="0 0 282.96 289.91998" height="378" preserveAspectRatio="xMidYMid meet" version="1.0"><defs><clipPath id="a21794d8a3"><path d="M 169.851562 40.300781 L 247.082031 40.300781 L 247.082031 111.53125 L 169.851562 111.53125 Z M 169.851562 40.300781 " clip-rule="nonzero"/></clipPath></defs><g clip-path="url(#a21794d8a3)"><path fill="#33605c" d="M 235.351562 70.566406 C 214.386719 65.429688 210.222656 61.269531 205.089844 40.304688 C 199.953125 61.269531 195.792969 65.429688 174.828125 70.566406 C 195.792969 75.699219 199.953125 79.863281 205.089844 100.828125 C 210.222656 79.863281 214.386719 75.699219 235.351562 70.566406 Z M 230.378906 78.023438 C 227.554688 89.554688 225.265625 91.84375 213.734375 94.667969 C 225.265625 97.492188 227.554688 99.78125 230.378906 111.3125 C 233.203125 99.78125 235.492188 97.492188 247.023438 94.667969 C 235.492188 91.84375 233.203125 89.554688 230.378906 78.023438 Z M 181.5625 81.3125 C 179.578125 89.414062 177.96875 91.023438 169.863281 93.007812 C 177.96875 94.992188 179.578125 96.601562 181.5625 104.707031 C 183.546875 96.601562 185.15625 94.992188 193.261719 93.007812 C 185.15625 91.023438 183.546875 89.414062 181.5625 81.3125 Z M 185.828125 57.707031 C 186.863281 53.488281 187.699219 52.648438 191.917969 51.617188 C 187.699219 50.582031 186.863281 49.746094 185.828125 45.523438 C 184.792969 49.746094 183.957031 50.582031 179.738281 51.617188 C 183.957031 52.648438 184.792969 53.488281 185.828125 57.707031 Z M 185.828125 57.707031 " fill-opacity="1" fill-rule="nonzero"/></g></svg>